<?xml version="1.0" standalone="no"?>
<!DOCTYPE svg PUBLIC "-//W3C//DTD SVG 20010904//EN"
 "http://www.w3.org/TR/2001/REC-SVG-20010904/DTD/svg10.dtd">
<svg version="1.0" xmlns="http://www.w3.org/2000/svg"
 width="366.000000pt" height="366.000000pt" viewBox="0 0 366.000000 366.000000"
 preserveAspectRatio="xMidYMid meet">
<metadata>
Created by potrace 1.11, written by Peter Selinger 2001-2013
</metadata>
<g transform="translate(0.000000,366.000000) scale(0.100000,-0.100000)"
fill="#000000" stroke="none">
<path d="M1770 3613 c-762 -33 -1408 -523 -1638 -1244 -36 -112 -68 -263 -77
-369 -8 -82 -8 -284 0 -340 2 -19 7 -57 11 -85 3 -27 8 -59 10 -70 2 -11 6
-32 9 -48 20 -108 82 -282 150 -422 242 -496 730 -862 1275 -959 136 -24 177
-28 315 -27 162 1 215 6 340 31 536 105 978 430 1238 910 57 106 132 296 152
389 27 123 45 218 50 271 7 71 8 313 1 345 -2 11 -7 49 -12 85 -4 36 -8 67 -9
70 -1 3 -7 32 -14 64 -112 510 -452 955 -914 1195 -213 111 -458 182 -679 197
-134 9 -147 9 -208 7z m240 -77 c56 -6 63 -7 172 -27 148 -26 411 -130 548
-217 281 -179 502 -423 640 -707 50 -104 103 -245 121 -324 6 -25 13 -55 15
-66 24 -101 37 -231 38 -355 0 -88 -11 -257 -18 -268 -2 -4 -7 -28 -10 -53 -3
-25 -15 -79 -26 -120 -11 -41 -22 -81 -24 -89 -2 -8 -15 -44 -29 -80 -203
-534 -645 -928 -1194 -1064 -782 -195 -1601 186 -1952 908 -73 151 -131 326
-147 445 -3 25 -8 48 -9 52 -8 12 -19 162 -19 254 0 267 52 501 161 732 221
467 634 809 1127 933 105 26 142 33 246 46 25 3 46 7 47 8 5 4 261 -2 313 -8z"/>
<path d="M1834 3343 c-11 -10 -39 -42 -63 -70 -47 -58 -44 -65 27 -59 35 3 42
0 42 -15 0 -13 -8 -19 -22 -20 -22 -1 -22 -1 2 -8 14 -4 36 -5 50 -2 14 3 18
6 10 8 -12 3 -14 18 -12 84 4 89 -4 109 -34 82z m4 -75 c-3 -41 -5 -43 -36
-44 -37 -1 -37 9 1 56 31 40 39 37 35 -12z"/>
<path d="M2073 3329 c-31 -11 -55 -53 -55 -93 0 -65 17 -78 130 -101 30 -6 33
-5 38 24 4 19 13 31 23 32 9 1 -4 7 -28 15 -25 8 -46 12 -49 10 -2 -2 6 -7 17
-11 22 -7 25 -14 15 -39 -7 -19 -26 -20 -70 -4 -35 13 -54 43 -49 79 6 51 16
61 85 82 29 9 60 -11 60 -38 0 -14 4 -25 9 -25 10 0 21 24 21 45 0 22 -106 39
-147 24z"/>
<path d="M1437 3316 c-26 -7 -51 -17 -55 -21 -4 -5 1 -5 10 -2 18 6 19 4 49
-117 10 -40 9 -50 -2 -58 -16 -11 -8 -9 83 16 63 18 87 37 89 69 7 116 -42
148 -174 113z m133 -34 c44 -55 12 -126 -62 -138 -33 -6 -36 -4 -41 22 -3 16
-10 49 -17 73 -13 53 -9 68 22 73 43 6 78 -4 98 -30z"/>
<path d="M2289 3251 c-16 -16 -30 -40 -30 -53 -1 -13 -2 -30 -3 -38 -5 -44 64
-89 136 -90 30 0 42 6 62 33 53 69 43 124 -27 152 -74 30 -105 29 -138 -4z
m132 -8 c40 -24 48 -71 19 -118 -12 -19 -27 -36 -33 -36 -7 -1 -22 -3 -34 -4
-38 -4 -81 30 -88 69 -16 81 62 132 136 89z"/>
<path d="M1239 3250 c-66 -23 -103 -62 -94 -99 23 -99 75 -127 160 -84 51 26
65 44 65 83 0 47 -23 94 -53 107 -18 9 -36 7 -78 -7z m95 -55 c19 -40 17 -67
-10 -96 -43 -48 -112 -42 -139 12 -29 56 -14 98 45 123 45 19 84 5 104 -39z"/>
<path d="M1885 3220 c-3 -5 -1 -10 4 -10 6 0 11 5 11 10 0 6 -2 10 -4 10 -3 0
-8 -4 -11 -10z"/>
<path d="M2562 3157 c-32 -18 -51 -50 -57 -96 -5 -36 -2 -42 30 -67 55 -42
104 -55 138 -38 34 18 67 70 67 106 0 30 -41 67 -103 93 -43 18 -45 18 -75 2z
m100 -28 c75 -40 59 -134 -27 -160 -22 -7 -74 16 -92 40 -27 35 -7 106 36 127
26 14 48 12 83 -7z"/>
<path d="M995 3131 c-76 -35 -106 -76 -95 -126 8 -35 32 -66 65 -82 31 -15 80
3 126 46 33 33 40 44 36 68 -7 46 -33 88 -62 101 -31 14 -22 15 -70 -7z m72
-28 c26 -24 42 -73 32 -99 -11 -32 -58 -64 -91 -64 -34 0 -88 50 -88 82 0 73
96 126 147 81z"/>
<path d="M2814 3034 c8 -26 -80 -148 -100 -140 -29 11 -12 -11 40 -52 69 -53
104 -61 149 -33 35 21 59 73 48 102 -10 25 -43 62 -95 103 -37 30 -47 34 -42
20z m63 -51 c11 -10 28 -32 38 -50 16 -27 17 -35 5 -62 -14 -34 -32 -47 -73
-55 -31 -5 -93 32 -91 56 2 17 84 128 95 128 3 0 15 -8 26 -17z"/>
<path d="M804 3002 c-32 -20 -114 -98 -114 -107 0 -5 4 -4 9 4 6 10 24 -2 70
-50 34 -35 60 -68 57 -76 -8 -19 -2 -16 34 17 18 17 28 30 23 30 -5 0 -14 -5
-19 -10 -7 -7 -19 -1 -38 19 l-28 29 23 16 c13 9 31 16 41 16 23 0 23 13 0 33
-20 18 -34 14 -26 -7 3 -7 -7 -21 -22 -31 -27 -18 -28 -18 -51 11 -29 37 -29
38 5 63 19 13 33 17 43 10 29 -18 39 -6 17 24 -7 9 -18 13 -24 9z"/>
<path d="M2340 2588 c-233 -284 -300 -375 -306 -416 -2 -15 2 -50 11 -77 l15
-50 -95 -140 c-52 -77 -105 -152 -117 -168 l-23 -27 -110 160 c-60 88 -111
167 -113 176 -2 8 1 20 7 27 20 25 24 111 7 175 -25 100 -62 161 -150 248 -92
91 -186 145 -264 152 -66 5 -85 -17 -90 -107 -8 -135 65 -317 168 -420 71 -70
136 -103 217 -110 l62 -6 57 -80 c32 -44 86 -120 120 -169 l63 -90 -40 -55
c-132 -186 -230 -299 -348 -405 -69 -62 -132 -125 -140 -139 -12 -22 -12 -36
-2 -82 14 -61 36 -83 79 -79 15 1 39 2 54 3 49 2 76 44 139 216 40 107 77 176
173 325 99 152 115 175 119 169 30 -43 164 -252 194 -304 22 -38 64 -132 94
-209 62 -161 86 -192 153 -197 74 -6 87 1 107 58 26 78 14 109 -73 185 -180
158 -268 256 -407 455 l-43 62 95 133 c164 229 148 212 205 214 90 2 108 22
293 334 144 241 133 220 120 220 -5 0 -80 -99 -165 -220 -114 -159 -161 -218
-172 -213 -18 7 -29 -12 156 258 155 227 154 225 143 225 -4 0 -80 -101 -168
-225 -94 -132 -166 -223 -174 -222 -8 1 -15 5 -15 9 -1 3 69 109 154 234 167
246 166 244 153 244 -4 0 -80 -101 -168 -224 -88 -124 -165 -227 -172 -230
-36 -15 -5 42 124 229 80 116 149 218 154 228 22 41 -11 10 -81 -75z"/>
<path d="M653 1065 c-62 -42 -113 -77 -113 -80 0 -11 19 -3 64 27 l48 31 21
-27 c12 -14 33 -27 47 -28 25 -2 79 27 81 43 1 5 2 15 3 22 2 10 -31 87 -37
87 -1 0 -53 -34 -114 -75z m127 19 c17 -30 7 -51 -33 -74 -25 -14 -28 -13 -54
13 -24 24 -26 29 -12 37 9 5 27 18 40 29 32 27 43 26 59 -5z"/>
<path d="M2880 1124 c0 -3 10 -24 23 -47 45 -81 46 -79 -36 -71 -39 3 -68 2
-64 -2 4 -4 41 -11 82 -15 65 -6 82 -12 126 -44 27 -21 53 -35 56 -31 4 3 4 7
2 9 -2 2 -28 20 -56 41 -40 29 -61 53 -85 102 -27 54 -48 80 -48 58z"/>
<path d="M819 1018 c-8 -7 -54 -46 -102 -87 -49 -40 -86 -75 -83 -78 3 -3 26
12 52 33 l46 38 19 -23 c27 -33 24 -44 -21 -85 -40 -36 -47 -46 -32 -46 14 0
82 70 82 84 0 8 13 17 29 21 29 6 64 38 73 65 6 17 -14 61 -35 79 -12 9 -18 9
-28 -1z m51 -66 c0 -19 -46 -62 -67 -62 -10 0 -27 10 -37 22 -19 22 -19 22 24
61 l44 38 18 -23 c10 -13 18 -29 18 -36z"/>
<path d="M1567 1003 c-4 -3 -7 -18 -7 -31 0 -29 6 -27 12 3 2 11 14 23 28 26
l25 7 -26 1 c-14 0 -29 -2 -32 -6z"/>
<path d="M1643 1003 c-22 -8 -14 -48 13 -72 26 -22 29 -51 6 -59 -6 -2 -16 7
-21 20 -10 23 -10 23 -10 1 -1 -22 30 -40 49 -28 20 12 10 54 -16 71 -16 11
-24 24 -22 37 4 30 26 33 38 5 l10 -23 -3 25 c-2 24 -20 34 -44 23z"/>
<path d="M1712 1003 c9 -2 19 -12 21 -21 4 -16 5 -16 6 0 0 9 11 19 24 21 12
2 2 4 -23 4 -25 1 -37 -1 -28 -4z"/>
<path d="M1857 1003 c-4 -3 -7 -13 -7 -22 0 -11 3 -10 15 5 12 16 16 17 24 5
11 -17 5 -37 -21 -70 -28 -36 -24 -61 10 -60 23 2 24 2 5 6 -24 5 -31 27 -12
39 6 3 18 22 26 41 11 27 11 38 2 49 -12 15 -31 18 -42 7z"/>
<path d="M1925 999 c-9 -13 -8 -93 1 -121 8 -25 34 -19 45 10 6 15 5 21 -1 17
-6 -3 -10 -13 -10 -21 0 -9 -6 -14 -12 -11 -17 5 -18 119 -1 124 6 2 14 -6 16
-19 5 -21 5 -21 4 2 -2 26 -30 39 -42 19z"/>
<path d="M1996 994 c-9 -24 -7 -31 4 -14 7 11 10 -6 11 -55 1 -38 4 -57 6 -42
4 23 9 28 24 24 16 -4 18 -3 9 8 -9 11 -7 19 12 38 12 13 24 31 24 40 3 29
-10 19 -30 -24 -27 -56 -36 -57 -36 -5 0 46 -12 61 -24 30z"/>
<path d="M2747 942 c-15 -15 -27 -31 -27 -34 0 -3 45 -45 100 -93 55 -47 100
-82 100 -77 0 5 -18 26 -40 46 -41 37 -44 58 -9 76 28 15 36 13 79 -26 22 -20
40 -32 40 -26 0 17 -69 72 -91 72 -12 0 -23 10 -29 26 -13 33 -49 63 -76 64
-11 0 -32 -13 -47 -28z m109 -35 c7 -22 -14 -67 -30 -67 -6 0 -29 16 -51 35
l-40 35 28 25 c28 25 29 25 58 8 16 -10 32 -26 35 -36z"/>
<path d="M2077 953 c-10 -9 -9 -23 1 -23 5 0 9 7 9 15 0 17 -1 18 -10 8z"/>
<path d="M1730 940 c0 -5 5 -10 11 -10 5 0 7 5 4 10 -3 6 -8 10 -11 10 -2 0
-4 -4 -4 -10z"/>
<path d="M1966 933 c-6 -14 -5 -15 5 -6 7 7 10 15 7 18 -3 3 -9 -2 -12 -12z"/>
<path d="M1560 932 c0 -5 14 -7 30 -4 17 2 30 6 30 8 0 2 -13 4 -30 4 -16 0
-30 -4 -30 -8z"/>
<path d="M828 829 c-49 -49 -88 -93 -88 -97 0 -12 59 -66 65 -61 3 3 -9 18
-25 34 l-30 29 37 38 c20 21 42 38 48 38 5 0 19 -11 29 -25 10 -14 24 -25 29
-25 6 0 -3 15 -21 33 l-32 33 39 38 c39 38 40 39 65 22 15 -9 26 -21 26 -26 0
-6 5 -10 12 -10 7 0 -3 16 -22 35 -19 19 -36 35 -39 34 -4 0 -45 -40 -93 -90z"/>
<path d="M2072 898 c5 -35 15 -46 14 -14 -1 14 -5 29 -10 33 -4 4 -6 -4 -4
-19z"/>
<path d="M1561 888 c-1 -25 2 -28 32 -27 29 2 29 2 5 6 -18 3 -28 12 -31 26
-4 18 -5 17 -6 -5z"/>
<path d="M2671 860 c-17 -17 -31 -34 -31 -38 1 -4 41 -49 89 -100 l89 -93 36
32 c20 17 34 34 31 37 -3 3 -19 -8 -36 -24 l-30 -29 -41 44 -40 45 34 28 c18
15 28 28 23 28 -6 0 -22 -11 -36 -24 l-26 -24 -38 38 c-35 36 -43 70 -16 70 6
0 15 9 21 20 15 27 8 25 -29 -10z"/>
<path d="M916 739 c-42 -55 -76 -105 -74 -110 2 -6 28 22 57 61 30 39 55 69
57 67 2 -2 -12 -42 -31 -90 -18 -48 -30 -87 -25 -87 6 0 99 64 148 103 24 19
12 -1 -43 -69 -32 -41 -50 -71 -43 -73 7 -2 14 1 16 8 2 6 9 17 15 24 7 7 28
33 47 57 42 55 45 59 71 90 38 46 0 32 -88 -34 -48 -35 -89 -61 -91 -56 -2 4
15 52 38 105 22 54 40 99 40 101 0 18 -28 -11 -94 -97z"/>
<path d="M2617 813 c-3 -4 15 -53 39 -107 24 -55 43 -100 42 -102 -2 -1 -43
29 -91 68 -49 38 -91 67 -94 64 -4 -3 5 -14 18 -25 13 -10 60 -48 104 -85 98
-81 112 -85 81 -20 -8 16 -31 70 -51 119 -41 99 -41 100 -48 88z"/>
<path d="M1087 634 c-72 -111 -84 -134 -71 -134 12 0 147 217 142 229 -1 5
-34 -38 -71 -95z"/>
<path d="M2480 716 c0 -3 22 -37 48 -78 26 -40 58 -90 71 -110 12 -21 27 -38
33 -38 10 0 -3 23 -85 153 -42 65 -67 92 -67 73z"/>
<path d="M1121 608 c-28 -57 -51 -111 -51 -120 0 -10 12 -25 26 -35 23 -15 29
-15 51 -2 26 15 142 219 125 219 -6 0 -34 -45 -63 -100 -29 -55 -60 -102 -67
-105 -24 -9 -52 5 -52 26 0 20 44 113 87 182 16 26 19 37 10 37 -8 0 -37 -46
-66 -102z"/>
<path d="M2380 653 c0 -7 117 -222 125 -231 2 -2 25 9 51 24 26 15 42 30 36
32 -7 2 -27 -6 -46 -17 l-33 -21 -59 110 c-52 97 -74 127 -74 103z"/>
<path d="M1245 525 c-27 -69 -45 -128 -42 -132 4 -3 12 7 18 23 6 16 22 56 35
89 19 50 30 64 25 33 0 -4 -3 -46 -6 -95 l-5 -88 22 29 c13 15 42 53 66 83 23
31 42 53 42 50 0 -6 -60 -158 -68 -171 -2 -5 1 -7 8 -4 13 4 109 238 103 251
-5 8 -24 -14 -101 -116 -44 -58 -56 -66 -54 -37 1 14 14 149 17 178 8 62 -13
31 -60 -93z"/>
<path d="M2310 632 c-19 -9 -36 -17 -38 -18 -4 -2 30 -83 77 -186 l31 -67 40
18 c22 10 44 22 48 26 6 7 -2 6 -63 -11 -17 -4 -25 3 -41 40 -24 50 -23 52 26
73 19 8 30 17 24 19 -6 3 -26 -2 -44 -10 l-34 -14 -23 51 c-13 27 -22 51 -21
52 2 1 18 7 36 15 35 13 52 30 30 29 -7 0 -29 -8 -48 -17z"/>
<path d="M2168 583 c-10 -2 -18 -12 -18 -21 0 -13 46 -159 75 -239 6 -17 61 3
80 30 16 22 14 37 -16 131 -33 102 -52 117 -121 99z m82 -41 c18 -39 50 -144
50 -164 0 -23 -58 -55 -65 -36 -3 7 -20 59 -39 115 l-33 102 26 9 c34 12 46 7
61 -26z"/>
<path d="M1539 549 c0 -8 -2 -21 -4 -29 -1 -8 -5 -31 -9 -50 -11 -71 -26 -142
-30 -149 -3 -4 -1 -13 4 -20 5 -9 12 4 19 38 6 29 11 59 11 67 0 14 19 13 67
-1 7 -2 15 0 18 5 3 5 -12 13 -35 16 -44 7 -48 18 -30 85 10 36 11 37 47 28
34 -7 53 -5 42 5 -2 2 -25 7 -51 11 -37 6 -48 4 -49 -6z"/>
<path d="M1957 542 c-17 -3 -18 -11 -13 -70 6 -56 15 -117 24 -154 1 -5 2 -18
2 -29 0 -19 4 -21 36 -16 50 8 64 23 64 70 0 57 -20 163 -34 182 -12 17 -47
24 -79 17z m59 -20 c18 -12 28 -52 38 -165 4 -43 -13 -67 -48 -67 -21 0 -24 6
-30 58 -4 31 -8 68 -11 82 -12 74 -12 89 -2 94 18 7 41 6 53 -2z"/>
<path d="M1676 525 c-17 -18 -24 -52 -30 -147 -5 -84 14 -117 64 -110 44 6 48
16 57 153 5 82 4 87 -18 103 -29 20 -53 20 -73 1z m72 -22 c9 -18 8 -83 -3
-161 -7 -51 -42 -75 -71 -51 -13 11 -15 28 -11 100 3 47 10 96 16 108 14 26
57 28 69 4z"/>
<path d="M1820 523 c-18 -13 -20 -25 -20 -111 0 -58 5 -107 13 -122 27 -54
107 -24 107 40 0 39 -15 39 -16 -1 -2 -34 -28 -59 -55 -52 -25 7 -30 26 -35
125 -4 69 -1 89 12 102 40 40 74 6 74 -75 0 -32 4 -59 9 -59 13 0 5 128 -9
144 -16 21 -57 25 -80 9z"/>
</g>
</svg>
